<svg width="335" height="296" xmlns="http://www.w3.org/2000/svg">
 <g>
  <title>Estrella Rara</title>
  <path id="svg_3" d="m86.638206,192.203201c0,0 15.329247,33.796799 14.903435,33.796799c-0.425812,0 15.755058,-33.796799 16.606689,-33.796799c0.851624,0 47.690994,8.449203 47.265182,8.449203c-0.425812,0 -5.535568,-32.106949 -5.96138,-32.106949c-0.425812,0 25.974564,-16.898392 25.548752,-16.898392c-0.425812,0 -9.793686,-34.641724 -10.219498,-34.641724c-0.425812,0 -8.090439,-24.50267 -8.516251,-24.50267c-0.425812,0 -10.645309,27.882355 -11.071121,27.882355c-0.425812,0 -18.309937,-38.021393 -18.735748,-38.021393c-0.425812,0 -12.348572,25.347595 -12.774384,25.347595c-0.425812,0 -26.82618,-39.711227 -27.251991,-39.711227c-0.425812,0 -9.793686,27.03743 -9.793686,27.882347c0,0.844925 15.329247,27.037437 17.032494,27.882362c1.703255,0.84491 -49.394245,12.673798 -49.820057,12.673798c-0.425812,0 14.051815,9.294113 16.606686,10.139038c2.554878,0.84491 -17.032497,14.363632 -17.458309,14.363632c-0.425816,0 23.419682,1.689835 22.99387,1.689835c-0.425812,0 -14.903435,22.812836 -15.329247,22.812836c-0.425812,0 25.974564,6.759354 25.974564,6.759354z" stroke-width="5" fill="#00ff7f"/>
 </g>
</svg>